<<<<<<< HEAD:layout.drawio
<mxfile host="65bd71144e" modified="2021-01-05T03:52:46.651Z" agent="5.0 (Windows NT 10.0; Win64; x64) AppleWebKit/537.36 (KHTML, like Gecko) Code/1.52.1 Chrome/83.0.4103.122 Electron/9.3.5 Safari/537.36" etag="gmKTGCXGVZDGSt8Noe7E" version="13.10.0" type="embed" pages="7">
    <diagram id="rMwAF_uRnOEji_af-N8W" name="Log In">
        <mxGraphModel dx="1148" dy="790" grid="1" gridSize="10" guides="1" tooltips="1" connect="1" arrows="1" fold="1" page="1" pageScale="1" pageWidth="850" pageHeight="1100" math="0" shadow="0">
=======
<mxfile host="65bd71144e" modified="2021-01-05T02:45:47.033Z" agent="5.0 (Windows NT 10.0; Win64; x64) AppleWebKit/537.36 (KHTML, like Gecko) Code/1.52.1 Chrome/83.0.4103.122 Electron/9.3.5 Safari/537.36" etag="tfNPoOc1Iv2lUtAdK435" version="13.10.0" type="embed" pages="7">
    <diagram id="rMwAF_uRnOEji_af-N8W" name="Log In">
        <mxGraphModel dx="831" dy="443" grid="1" gridSize="10" guides="1" tooltips="1" connect="1" arrows="1" fold="1" page="1" pageScale="1" pageWidth="850" pageHeight="1100" math="0" shadow="0">
>>>>>>> 89dd34d428ba6c7158a2d0597193d373603cdc22:assets/layout.drawio
            <root>
                <mxCell id="0"/>
                <mxCell id="1" parent="0"/>
                <mxCell id="2" value="Log In" style="text;html=1;resizable=0;autosize=1;align=center;verticalAlign=middle;points=[];fillColor=none;strokeColor=none;rounded=0;fontSize=50;" parent="1" vertex="1">
                    <mxGeometry x="20" y="90" width="150" height="70" as="geometry"/>
                </mxCell>
                <mxCell id="6" value="" style="whiteSpace=wrap;html=1;fontSize=50;" parent="1" vertex="1">
                    <mxGeometry x="340" y="460" width="130" height="50" as="geometry"/>
                </mxCell>
                <mxCell id="7" value="&lt;font style=&quot;font-size: 25px&quot;&gt;Log-In&lt;/font&gt;" style="text;html=1;resizable=0;autosize=1;align=center;verticalAlign=middle;points=[];fillColor=none;strokeColor=none;rounded=0;fontSize=50;" parent="1" vertex="1">
                    <mxGeometry x="360" y="440" width="90" height="70" as="geometry"/>
                </mxCell>
                <mxCell id="8" value="" style="whiteSpace=wrap;html=1;fontSize=50;" parent="1" vertex="1">
                    <mxGeometry x="190" y="460" width="130" height="50" as="geometry"/>
                </mxCell>
                <mxCell id="9" value="&lt;font style=&quot;font-size: 25px&quot;&gt;Sign Up&lt;/font&gt;" style="text;html=1;resizable=0;autosize=1;align=center;verticalAlign=middle;points=[];fillColor=none;strokeColor=none;rounded=0;fontSize=50;" parent="1" vertex="1">
                    <mxGeometry x="205" y="440" width="100" height="70" as="geometry"/>
                </mxCell>
                <mxCell id="11" value="" style="whiteSpace=wrap;html=1;fontSize=50;" parent="1" vertex="1">
                    <mxGeometry x="190" y="370" width="450" height="60" as="geometry"/>
                </mxCell>
                <mxCell id="12" value="" style="whiteSpace=wrap;html=1;fontSize=50;" parent="1" vertex="1">
                    <mxGeometry x="190" y="280" width="450" height="60" as="geometry"/>
                </mxCell>
                <mxCell id="13" value="Password" style="text;html=1;resizable=0;autosize=1;align=center;verticalAlign=middle;points=[];fillColor=none;strokeColor=none;rounded=0;fontSize=50;" parent="1" vertex="1">
                    <mxGeometry x="300" y="365" width="240" height="70" as="geometry"/>
                </mxCell>
                <mxCell id="14" value="Email" style="text;html=1;resizable=0;autosize=1;align=center;verticalAlign=middle;points=[];fillColor=none;strokeColor=none;rounded=0;fontSize=50;" parent="1" vertex="1">
                    <mxGeometry x="345" y="275" width="140" height="70" as="geometry"/>
                </mxCell>
                <mxCell id="15" value="" style="whiteSpace=wrap;html=1;fontSize=50;" parent="1" vertex="1">
                    <mxGeometry x="20" y="10" width="255" height="60" as="geometry"/>
                </mxCell>
                <mxCell id="16" value="Snip Its" style="text;html=1;resizable=0;autosize=1;align=center;verticalAlign=middle;points=[];fillColor=none;strokeColor=none;rounded=0;fontSize=50;" parent="1" vertex="1">
                    <mxGeometry x="70" y="5" width="180" height="70" as="geometry"/>
                </mxCell>
            </root>
        </mxGraphModel>
    </diagram>
    <diagram id="QH0mVIBQ-t_T0QWzpe5j" name="Sign Up">
<<<<<<< HEAD:layout.drawio
        <mxGraphModel dx="1148" dy="790" grid="1" gridSize="10" guides="1" tooltips="1" connect="1" arrows="1" fold="1" page="1" pageScale="1" pageWidth="850" pageHeight="1100" math="0" shadow="0">
=======
        &#xa;
        <mxGraphModel dx="831" dy="443" grid="1" gridSize="10" guides="1" tooltips="1" connect="1" arrows="1" fold="1" page="1" pageScale="1" pageWidth="850" pageHeight="1100" math="0" shadow="0">
            &#xa;
>>>>>>> 89dd34d428ba6c7158a2d0597193d373603cdc22:assets/layout.drawio
            <root>
                &#xa;
                <mxCell id="GxW01RZV59rrJHg8ICjS-0"/>
                &#xa;
                <mxCell id="GxW01RZV59rrJHg8ICjS-1" parent="GxW01RZV59rrJHg8ICjS-0"/>
                &#xa;
                <mxCell id="CThn7wAQWD-tsHnmU6gw-0" value="Sign Up" style="text;html=1;resizable=0;autosize=1;align=center;verticalAlign=middle;points=[];fillColor=none;strokeColor=none;rounded=0;fontSize=50;" parent="GxW01RZV59rrJHg8ICjS-1" vertex="1">
                    &#xa;
                    <mxGeometry y="90" width="190" height="70" as="geometry"/>
                    &#xa;
                </mxCell>
                &#xa;
                <mxCell id="CThn7wAQWD-tsHnmU6gw-3" value="" style="whiteSpace=wrap;html=1;fontSize=50;" parent="GxW01RZV59rrJHg8ICjS-1" vertex="1">
                    &#xa;
                    <mxGeometry x="190" y="640" width="130" height="50" as="geometry"/>
                    &#xa;
                </mxCell>
                &#xa;
                <mxCell id="CThn7wAQWD-tsHnmU6gw-4" value="&lt;font style=&quot;font-size: 25px&quot;&gt;Sign Up&lt;/font&gt;" style="text;html=1;resizable=0;autosize=1;align=center;verticalAlign=middle;points=[];fillColor=none;strokeColor=none;rounded=0;fontSize=50;" parent="GxW01RZV59rrJHg8ICjS-1" vertex="1">
                    &#xa;
                    <mxGeometry x="205" y="620" width="100" height="70" as="geometry"/>
                    &#xa;
                </mxCell>
                &#xa;
                <mxCell id="CThn7wAQWD-tsHnmU6gw-5" value="" style="whiteSpace=wrap;html=1;fontSize=50;" parent="GxW01RZV59rrJHg8ICjS-1" vertex="1">
                    &#xa;
                    <mxGeometry x="190" y="370" width="450" height="60" as="geometry"/>
                    &#xa;
                </mxCell>
                &#xa;
                <mxCell id="CThn7wAQWD-tsHnmU6gw-6" value="" style="whiteSpace=wrap;html=1;fontSize=50;" parent="GxW01RZV59rrJHg8ICjS-1" vertex="1">
                    &#xa;
                    <mxGeometry x="190" y="280" width="450" height="60" as="geometry"/>
                    &#xa;
                </mxCell>
                &#xa;
                <mxCell id="CThn7wAQWD-tsHnmU6gw-7" value="Password" style="text;html=1;resizable=0;autosize=1;align=center;verticalAlign=middle;points=[];fillColor=none;strokeColor=none;rounded=0;fontSize=50;" parent="GxW01RZV59rrJHg8ICjS-1" vertex="1">
                    &#xa;
                    <mxGeometry x="295" y="365" width="240" height="70" as="geometry"/>
                    &#xa;
                </mxCell>
                &#xa;
                <mxCell id="CThn7wAQWD-tsHnmU6gw-8" value="Email" style="text;html=1;resizable=0;autosize=1;align=center;verticalAlign=middle;points=[];fillColor=none;strokeColor=none;rounded=0;fontSize=50;" parent="GxW01RZV59rrJHg8ICjS-1" vertex="1">
                    &#xa;
                    <mxGeometry x="345" y="275" width="140" height="70" as="geometry"/>
                    &#xa;
                </mxCell>
                &#xa;
                <mxCell id="CThn7wAQWD-tsHnmU6gw-9" value="" style="whiteSpace=wrap;html=1;fontSize=50;" parent="GxW01RZV59rrJHg8ICjS-1" vertex="1">
                    &#xa;
                    <mxGeometry x="20" y="10" width="255" height="60" as="geometry"/>
                    &#xa;
                </mxCell>
                &#xa;
                <mxCell id="CThn7wAQWD-tsHnmU6gw-10" value="Snip Its" style="text;html=1;resizable=0;autosize=1;align=center;verticalAlign=middle;points=[];fillColor=none;strokeColor=none;rounded=0;fontSize=50;" parent="GxW01RZV59rrJHg8ICjS-1" vertex="1">
                    &#xa;
                    <mxGeometry x="70" y="5" width="180" height="70" as="geometry"/>
                    &#xa;
                </mxCell>
                &#xa;
                <mxCell id="CThn7wAQWD-tsHnmU6gw-11" value="" style="whiteSpace=wrap;html=1;fontSize=50;" parent="GxW01RZV59rrJHg8ICjS-1" vertex="1">
                    &#xa;
                    <mxGeometry x="190" y="460" width="450" height="60" as="geometry"/>
                    &#xa;
                </mxCell>
                &#xa;
                <mxCell id="CThn7wAQWD-tsHnmU6gw-12" value="Password" style="text;html=1;resizable=0;autosize=1;align=center;verticalAlign=middle;points=[];fillColor=none;strokeColor=none;rounded=0;fontSize=50;" parent="GxW01RZV59rrJHg8ICjS-1" vertex="1">
                    &#xa;
                    <mxGeometry x="295" y="455" width="240" height="70" as="geometry"/>
                    &#xa;
                </mxCell>
                &#xa;
                <mxCell id="CThn7wAQWD-tsHnmU6gw-13" value="" style="whiteSpace=wrap;html=1;fontSize=50;" parent="GxW01RZV59rrJHg8ICjS-1" vertex="1">
                    &#xa;
                    <mxGeometry x="190" y="190" width="450" height="60" as="geometry"/>
                    &#xa;
                </mxCell>
                &#xa;
                <mxCell id="CThn7wAQWD-tsHnmU6gw-14" value="Username" style="text;html=1;resizable=0;autosize=1;align=center;verticalAlign=middle;points=[];fillColor=none;strokeColor=none;rounded=0;fontSize=50;" parent="GxW01RZV59rrJHg8ICjS-1" vertex="1">
                    &#xa;
                    <mxGeometry x="290" y="190" width="250" height="70" as="geometry"/>
                    &#xa;
                </mxCell>
                &#xa;
                <mxCell id="0JVXmL1iFLtgxe8Ht82G-1" value="Upload Prof Photo" style="whiteSpace=wrap;html=1;fontSize=50;" parent="GxW01RZV59rrJHg8ICjS-1" vertex="1">
                    &#xa;
                    <mxGeometry x="190" y="550" width="450" height="60" as="geometry"/>
                    &#xa;
                </mxCell>
                &#xa;
            </root>
            &#xa;
        </mxGraphModel>
        &#xa;
    </diagram>
    <diagram id="EYpLPjdK9Rqxc9zTNAC4" name="Main Page">
<<<<<<< HEAD:layout.drawio
        <mxGraphModel dx="1913" dy="1317" grid="1" gridSize="10" guides="1" tooltips="1" connect="1" arrows="1" fold="1" page="1" pageScale="1" pageWidth="850" pageHeight="1100" math="0" shadow="0">
=======
        &#xa;
        <mxGraphModel dx="2078" dy="1108" grid="1" gridSize="10" guides="1" tooltips="1" connect="1" arrows="1" fold="1" page="1" pageScale="1" pageWidth="850" pageHeight="1100" math="0" shadow="0">
            &#xa;
>>>>>>> 89dd34d428ba6c7158a2d0597193d373603cdc22:assets/layout.drawio
            <root>
                &#xa;
                <mxCell id="fa7Ti_G8AkBBuR_Z-fCr-0"/>
                &#xa;
                <mxCell id="fa7Ti_G8AkBBuR_Z-fCr-1" parent="fa7Ti_G8AkBBuR_Z-fCr-0"/>
                &#xa;
                <mxCell id="u4Vt3XTNyrWU5ilpByM7-0" value="" style="whiteSpace=wrap;html=1;fontSize=50;" parent="fa7Ti_G8AkBBuR_Z-fCr-1" vertex="1">
                    &#xa;
                    <mxGeometry width="1700" height="80" as="geometry"/>
                    &#xa;
                </mxCell>
                &#xa;
                <mxCell id="u4Vt3XTNyrWU5ilpByM7-1" value="Navbar" style="text;html=1;resizable=0;autosize=1;align=center;verticalAlign=middle;points=[];fillColor=none;strokeColor=none;rounded=0;fontSize=50;" parent="fa7Ti_G8AkBBuR_Z-fCr-1" vertex="1">
                    &#xa;
                    <mxGeometry x="20" y="5" width="180" height="70" as="geometry"/>
                    &#xa;
                </mxCell>
                &#xa;
                <mxCell id="u4Vt3XTNyrWU5ilpByM7-2" value="" style="whiteSpace=wrap;html=1;fontSize=50;" parent="fa7Ti_G8AkBBuR_Z-fCr-1" vertex="1">
                    &#xa;
                    <mxGeometry y="1020" width="1700" height="80" as="geometry"/>
                    &#xa;
                </mxCell>
                &#xa;
                <mxCell id="u4Vt3XTNyrWU5ilpByM7-3" value="Footer" style="text;html=1;resizable=0;autosize=1;align=center;verticalAlign=middle;points=[];fillColor=none;strokeColor=none;rounded=0;fontSize=50;" parent="fa7Ti_G8AkBBuR_Z-fCr-1" vertex="1">
                    &#xa;
                    <mxGeometry x="770" y="1025" width="160" height="70" as="geometry"/>
                    &#xa;
                </mxCell>
                &#xa;
                <mxCell id="u4Vt3XTNyrWU5ilpByM7-8" value="" style="whiteSpace=wrap;html=1;fontSize=50;" parent="fa7Ti_G8AkBBuR_Z-fCr-1" vertex="1">
                    &#xa;
                    <mxGeometry x="350" y="100" width="1330" height="890" as="geometry"/>
                    &#xa;
                </mxCell>
                &#xa;
                <mxCell id="u4Vt3XTNyrWU5ilpByM7-9" value="Snip Its" style="whiteSpace=wrap;html=1;fontSize=50;" parent="fa7Ti_G8AkBBuR_Z-fCr-1" vertex="1">
                    &#xa;
                    <mxGeometry x="425" y="220" width="245" height="160" as="geometry"/>
                    &#xa;
                </mxCell>
                &#xa;
                <mxCell id="u4Vt3XTNyrWU5ilpByM7-10" value="&lt;span&gt;Snip Its&lt;/span&gt;" style="whiteSpace=wrap;html=1;fontSize=50;" parent="fa7Ti_G8AkBBuR_Z-fCr-1" vertex="1">
                    &#xa;
                    <mxGeometry x="760" y="220" width="245" height="160" as="geometry"/>
                    &#xa;
                </mxCell>
                &#xa;
                <mxCell id="u4Vt3XTNyrWU5ilpByM7-11" value="&lt;span&gt;Snip Its&lt;/span&gt;" style="whiteSpace=wrap;html=1;fontSize=50;" parent="fa7Ti_G8AkBBuR_Z-fCr-1" vertex="1">
                    &#xa;
                    <mxGeometry x="1390" y="220" width="245" height="160" as="geometry"/>
                    &#xa;
                </mxCell>
                &#xa;
                <mxCell id="u4Vt3XTNyrWU5ilpByM7-12" value="&lt;span&gt;Snip Its&lt;/span&gt;" style="whiteSpace=wrap;html=1;fontSize=50;" parent="fa7Ti_G8AkBBuR_Z-fCr-1" vertex="1">
                    &#xa;
                    <mxGeometry x="1080" y="220" width="245" height="160" as="geometry"/>
                    &#xa;
                </mxCell>
                &#xa;
                <mxCell id="u4Vt3XTNyrWU5ilpByM7-13" value="Snip Its" style="whiteSpace=wrap;html=1;fontSize=50;" parent="fa7Ti_G8AkBBuR_Z-fCr-1" vertex="1">
                    &#xa;
                    <mxGeometry x="425" y="470" width="245" height="160" as="geometry"/>
                    &#xa;
                </mxCell>
                &#xa;
                <mxCell id="u4Vt3XTNyrWU5ilpByM7-14" value="&lt;span&gt;Snip Its&lt;/span&gt;" style="whiteSpace=wrap;html=1;fontSize=50;" parent="fa7Ti_G8AkBBuR_Z-fCr-1" vertex="1">
                    &#xa;
                    <mxGeometry x="420" y="760" width="245" height="160" as="geometry"/>
                    &#xa;
                </mxCell>
                &#xa;
                <mxCell id="u4Vt3XTNyrWU5ilpByM7-15" value="&lt;span&gt;Snip Its&lt;/span&gt;" style="whiteSpace=wrap;html=1;fontSize=50;" parent="fa7Ti_G8AkBBuR_Z-fCr-1" vertex="1">
                    &#xa;
                    <mxGeometry x="760" y="470" width="245" height="160" as="geometry"/>
                    &#xa;
                </mxCell>
                &#xa;
                <mxCell id="u4Vt3XTNyrWU5ilpByM7-16" value="&lt;span&gt;Snip Its&lt;/span&gt;" style="whiteSpace=wrap;html=1;fontSize=50;" parent="fa7Ti_G8AkBBuR_Z-fCr-1" vertex="1">
                    &#xa;
                    <mxGeometry x="1090" y="470" width="245" height="160" as="geometry"/>
                    &#xa;
                </mxCell>
                &#xa;
                <mxCell id="u4Vt3XTNyrWU5ilpByM7-17" value="&lt;span&gt;Snip Its&lt;/span&gt;" style="whiteSpace=wrap;html=1;fontSize=50;" parent="fa7Ti_G8AkBBuR_Z-fCr-1" vertex="1">
                    &#xa;
                    <mxGeometry x="1390" y="460" width="245" height="160" as="geometry"/>
                    &#xa;
                </mxCell>
                &#xa;
                <mxCell id="u4Vt3XTNyrWU5ilpByM7-18" value="&lt;span&gt;Snip Its&lt;/span&gt;" style="whiteSpace=wrap;html=1;fontSize=50;" parent="fa7Ti_G8AkBBuR_Z-fCr-1" vertex="1">
                    &#xa;
                    <mxGeometry x="760" y="760" width="245" height="160" as="geometry"/>
                    &#xa;
                </mxCell>
                &#xa;
                <mxCell id="u4Vt3XTNyrWU5ilpByM7-19" value="&lt;span&gt;Snip Its&lt;/span&gt;" style="whiteSpace=wrap;html=1;fontSize=50;" parent="fa7Ti_G8AkBBuR_Z-fCr-1" vertex="1">
                    &#xa;
                    <mxGeometry x="1110" y="750" width="245" height="160" as="geometry"/>
                    &#xa;
                </mxCell>
                &#xa;
                <mxCell id="u4Vt3XTNyrWU5ilpByM7-20" value="&lt;span&gt;Snip Its&lt;/span&gt;" style="whiteSpace=wrap;html=1;fontSize=50;" parent="fa7Ti_G8AkBBuR_Z-fCr-1" vertex="1">
                    &#xa;
                    <mxGeometry x="1410" y="750" width="245" height="160" as="geometry"/>
                    &#xa;
                </mxCell>
                &#xa;
                <mxCell id="u4Vt3XTNyrWU5ilpByM7-21" value="Create Btn" style="whiteSpace=wrap;html=1;fontSize=25;" parent="fa7Ti_G8AkBBuR_Z-fCr-1" vertex="1">
                    &#xa;
                    <mxGeometry x="1515" y="140" width="120" height="60" as="geometry"/>
                    &#xa;
                </mxCell>
                &#xa;
                <mxCell id="u4Vt3XTNyrWU5ilpByM7-23" value="" style="whiteSpace=wrap;html=1;fontSize=25;" parent="fa7Ti_G8AkBBuR_Z-fCr-1" vertex="1">
                    &#xa;
                    <mxGeometry x="20" y="100" width="300" height="890" as="geometry"/>
                    &#xa;
                </mxCell>
                &#xa;
                <mxCell id="u4Vt3XTNyrWU5ilpByM7-24" value="Filters" style="whiteSpace=wrap;html=1;fontSize=25;" parent="fa7Ti_G8AkBBuR_Z-fCr-1" vertex="1">
                    &#xa;
                    <mxGeometry x="50" y="270" width="240" height="700" as="geometry"/>
                    &#xa;
                </mxCell>
                &#xa;
                <mxCell id="u4Vt3XTNyrWU5ilpByM7-25" value="Search" style="whiteSpace=wrap;html=1;fontSize=25;" parent="fa7Ti_G8AkBBuR_Z-fCr-1" vertex="1">
                    &#xa;
                    <mxGeometry x="50" y="150" width="230" height="90" as="geometry"/>
                    &#xa;
                </mxCell>
                &#xa;
                <mxCell id="lBEbaeHytGwvavyBjwhI-0" value="All Snip Its" style="whiteSpace=wrap;html=1;fontSize=25;" parent="fa7Ti_G8AkBBuR_Z-fCr-1" vertex="1">
                    &#xa;
                    <mxGeometry x="950" y="130" width="120" height="60" as="geometry"/>
                    &#xa;
                </mxCell>
                &#xa;
            </root>
            &#xa;
        </mxGraphModel>
        &#xa;
    </diagram>
    <diagram id="BNum1VewSRDGRS1ak4OE" name="Profile">
<<<<<<< HEAD:layout.drawio
        <mxGraphModel dx="1913" dy="1317" grid="1" gridSize="10" guides="1" tooltips="1" connect="1" arrows="1" fold="1" page="1" pageScale="1" pageWidth="850" pageHeight="1100" math="0" shadow="0">
=======
        &#xa;
        <mxGraphModel dx="831" dy="443" grid="1" gridSize="10" guides="1" tooltips="1" connect="1" arrows="1" fold="1" page="1" pageScale="1" pageWidth="850" pageHeight="1100" math="0" shadow="0">
            &#xa;
>>>>>>> 89dd34d428ba6c7158a2d0597193d373603cdc22:assets/layout.drawio
            <root>
                &#xa;
                <mxCell id="WlDwBt7fqW8rS3JiSvJs-0"/>
                &#xa;
                <mxCell id="WlDwBt7fqW8rS3JiSvJs-1" parent="WlDwBt7fqW8rS3JiSvJs-0"/>
                &#xa;
                <mxCell id="WlDwBt7fqW8rS3JiSvJs-2" value="" style="whiteSpace=wrap;html=1;fontSize=50;" parent="WlDwBt7fqW8rS3JiSvJs-1" vertex="1">
                    &#xa;
                    <mxGeometry width="1700" height="80" as="geometry"/>
                    &#xa;
                </mxCell>
                &#xa;
                <mxCell id="WlDwBt7fqW8rS3JiSvJs-3" value="Navbar" style="text;html=1;resizable=0;autosize=1;align=center;verticalAlign=middle;points=[];fillColor=none;strokeColor=none;rounded=0;fontSize=50;" parent="WlDwBt7fqW8rS3JiSvJs-1" vertex="1">
                    &#xa;
                    <mxGeometry x="20" y="5" width="180" height="70" as="geometry"/>
                    &#xa;
                </mxCell>
                &#xa;
                <mxCell id="WlDwBt7fqW8rS3JiSvJs-4" value="" style="whiteSpace=wrap;html=1;fontSize=50;" parent="WlDwBt7fqW8rS3JiSvJs-1" vertex="1">
                    &#xa;
                    <mxGeometry y="1020" width="1700" height="80" as="geometry"/>
                    &#xa;
                </mxCell>
                &#xa;
                <mxCell id="WlDwBt7fqW8rS3JiSvJs-5" value="Footer" style="text;html=1;resizable=0;autosize=1;align=center;verticalAlign=middle;points=[];fillColor=none;strokeColor=none;rounded=0;fontSize=50;" parent="WlDwBt7fqW8rS3JiSvJs-1" vertex="1">
                    &#xa;
                    <mxGeometry x="770" y="1025" width="160" height="70" as="geometry"/>
                    &#xa;
                </mxCell>
                &#xa;
                <mxCell id="WlDwBt7fqW8rS3JiSvJs-6" value="" style="ellipse;whiteSpace=wrap;html=1;fontSize=50;" parent="WlDwBt7fqW8rS3JiSvJs-1" vertex="1">
                    &#xa;
                    <mxGeometry x="50" y="120" width="250" height="260" as="geometry"/>
                    &#xa;
                </mxCell>
                &#xa;
                <mxCell id="WlDwBt7fqW8rS3JiSvJs-7" value="Profile Img" style="text;html=1;resizable=0;autosize=1;align=center;verticalAlign=middle;points=[];fillColor=none;strokeColor=none;rounded=0;fontSize=50;" parent="WlDwBt7fqW8rS3JiSvJs-1" vertex="1">
                    &#xa;
                    <mxGeometry x="50" y="210" width="250" height="70" as="geometry"/>
                    &#xa;
                </mxCell>
                &#xa;
                <mxCell id="WlDwBt7fqW8rS3JiSvJs-8" value="" style="whiteSpace=wrap;html=1;fontSize=50;" parent="WlDwBt7fqW8rS3JiSvJs-1" vertex="1">
                    &#xa;
                    <mxGeometry x="40" y="400" width="280" height="280" as="geometry"/>
                    &#xa;
                </mxCell>
                &#xa;
                <mxCell id="WlDwBt7fqW8rS3JiSvJs-9" value="Name/Info" style="text;html=1;resizable=0;autosize=1;align=center;verticalAlign=middle;points=[];fillColor=none;strokeColor=none;rounded=0;fontSize=50;" parent="WlDwBt7fqW8rS3JiSvJs-1" vertex="1">
                    &#xa;
                    <mxGeometry x="55" y="505" width="250" height="70" as="geometry"/>
                    &#xa;
                </mxCell>
                &#xa;
                <mxCell id="WlDwBt7fqW8rS3JiSvJs-10" value="" style="whiteSpace=wrap;html=1;fontSize=50;" parent="WlDwBt7fqW8rS3JiSvJs-1" vertex="1">
                    &#xa;
                    <mxGeometry x="360" y="100" width="1320" height="900" as="geometry"/>
                    &#xa;
                </mxCell>
                &#xa;
                <mxCell id="WlDwBt7fqW8rS3JiSvJs-11" value="Snip Its" style="whiteSpace=wrap;html=1;fontSize=50;" parent="WlDwBt7fqW8rS3JiSvJs-1" vertex="1">
                    &#xa;
                    <mxGeometry x="425" y="220" width="245" height="160" as="geometry"/>
                    &#xa;
                </mxCell>
                &#xa;
                <mxCell id="WlDwBt7fqW8rS3JiSvJs-12" value="&lt;span&gt;Snip Its&lt;/span&gt;" style="whiteSpace=wrap;html=1;fontSize=50;" parent="WlDwBt7fqW8rS3JiSvJs-1" vertex="1">
                    &#xa;
                    <mxGeometry x="760" y="220" width="245" height="160" as="geometry"/>
                    &#xa;
                </mxCell>
                &#xa;
                <mxCell id="WlDwBt7fqW8rS3JiSvJs-24" value="&lt;span&gt;Snip Its&lt;/span&gt;" style="whiteSpace=wrap;html=1;fontSize=50;" parent="WlDwBt7fqW8rS3JiSvJs-1" vertex="1">
                    &#xa;
                    <mxGeometry x="1390" y="220" width="245" height="160" as="geometry"/>
                    &#xa;
                </mxCell>
                &#xa;
                <mxCell id="WlDwBt7fqW8rS3JiSvJs-25" value="&lt;span&gt;Snip Its&lt;/span&gt;" style="whiteSpace=wrap;html=1;fontSize=50;" parent="WlDwBt7fqW8rS3JiSvJs-1" vertex="1">
                    &#xa;
                    <mxGeometry x="1080" y="220" width="245" height="160" as="geometry"/>
                    &#xa;
                </mxCell>
                &#xa;
                <mxCell id="WlDwBt7fqW8rS3JiSvJs-26" value="Snip Its" style="whiteSpace=wrap;html=1;fontSize=50;" parent="WlDwBt7fqW8rS3JiSvJs-1" vertex="1">
                    &#xa;
                    <mxGeometry x="425" y="470" width="245" height="160" as="geometry"/>
                    &#xa;
                </mxCell>
                &#xa;
                <mxCell id="WlDwBt7fqW8rS3JiSvJs-27" value="&lt;span&gt;Snip Its&lt;/span&gt;" style="whiteSpace=wrap;html=1;fontSize=50;" parent="WlDwBt7fqW8rS3JiSvJs-1" vertex="1">
                    &#xa;
                    <mxGeometry x="420" y="760" width="245" height="160" as="geometry"/>
                    &#xa;
                </mxCell>
                &#xa;
                <mxCell id="WlDwBt7fqW8rS3JiSvJs-28" value="&lt;span&gt;Snip Its&lt;/span&gt;" style="whiteSpace=wrap;html=1;fontSize=50;" parent="WlDwBt7fqW8rS3JiSvJs-1" vertex="1">
                    &#xa;
                    <mxGeometry x="760" y="470" width="245" height="160" as="geometry"/>
                    &#xa;
                </mxCell>
                &#xa;
                <mxCell id="WlDwBt7fqW8rS3JiSvJs-29" value="&lt;span&gt;Snip Its&lt;/span&gt;" style="whiteSpace=wrap;html=1;fontSize=50;" parent="WlDwBt7fqW8rS3JiSvJs-1" vertex="1">
                    &#xa;
                    <mxGeometry x="1090" y="470" width="245" height="160" as="geometry"/>
                    &#xa;
                </mxCell>
                &#xa;
                <mxCell id="WlDwBt7fqW8rS3JiSvJs-30" value="&lt;span&gt;Snip Its&lt;/span&gt;" style="whiteSpace=wrap;html=1;fontSize=50;" parent="WlDwBt7fqW8rS3JiSvJs-1" vertex="1">
                    &#xa;
                    <mxGeometry x="1390" y="460" width="245" height="160" as="geometry"/>
                    &#xa;
                </mxCell>
                &#xa;
                <mxCell id="WlDwBt7fqW8rS3JiSvJs-31" value="&lt;span&gt;Snip Its&lt;/span&gt;" style="whiteSpace=wrap;html=1;fontSize=50;" parent="WlDwBt7fqW8rS3JiSvJs-1" vertex="1">
                    &#xa;
                    <mxGeometry x="760" y="760" width="245" height="160" as="geometry"/>
                    &#xa;
                </mxCell>
                &#xa;
                <mxCell id="WlDwBt7fqW8rS3JiSvJs-32" value="&lt;span&gt;Snip Its&lt;/span&gt;" style="whiteSpace=wrap;html=1;fontSize=50;" parent="WlDwBt7fqW8rS3JiSvJs-1" vertex="1">
                    &#xa;
                    <mxGeometry x="1110" y="750" width="245" height="160" as="geometry"/>
                    &#xa;
                </mxCell>
                &#xa;
                <mxCell id="WlDwBt7fqW8rS3JiSvJs-33" value="&lt;span&gt;Snip Its&lt;/span&gt;" style="whiteSpace=wrap;html=1;fontSize=50;" parent="WlDwBt7fqW8rS3JiSvJs-1" vertex="1">
                    &#xa;
                    <mxGeometry x="1410" y="750" width="245" height="160" as="geometry"/>
                    &#xa;
                </mxCell>
                &#xa;
                <mxCell id="WlDwBt7fqW8rS3JiSvJs-34" value="Create Btn" style="whiteSpace=wrap;html=1;fontSize=25;" parent="WlDwBt7fqW8rS3JiSvJs-1" vertex="1">
                    &#xa;
                    <mxGeometry x="1515" y="140" width="120" height="60" as="geometry"/>
                    &#xa;
                </mxCell>
                &#xa;
                <mxCell id="ghVxTTM9Z1yB0N-21N9q-0" value="Users Snip Its" style="whiteSpace=wrap;html=1;fontSize=25;" parent="WlDwBt7fqW8rS3JiSvJs-1" vertex="1">
                    &#xa;
                    <mxGeometry x="990" y="140" width="120" height="60" as="geometry"/>
                    &#xa;
                </mxCell>
                &#xa;
                <mxCell id="mZP5UH-jQ9MI4EK8pSfL-0" value="&lt;font style=&quot;font-size: 22px&quot;&gt;X&lt;/font&gt;" style="whiteSpace=wrap;html=1;strokeWidth=1;fontSize=10;" parent="WlDwBt7fqW8rS3JiSvJs-1" vertex="1">
                    &#xa;
                    <mxGeometry x="620" y="340" width="50" height="40" as="geometry"/>
                    &#xa;
                </mxCell>
                &#xa;
                <mxCell id="mZP5UH-jQ9MI4EK8pSfL-2" value="&lt;font style=&quot;font-size: 22px&quot;&gt;X&lt;/font&gt;" style="whiteSpace=wrap;html=1;strokeWidth=1;fontSize=10;" parent="WlDwBt7fqW8rS3JiSvJs-1" vertex="1">
                    &#xa;
                    <mxGeometry x="955" y="340" width="50" height="40" as="geometry"/>
                    &#xa;
                </mxCell>
                &#xa;
                <mxCell id="mZP5UH-jQ9MI4EK8pSfL-3" value="&lt;font style=&quot;font-size: 22px&quot;&gt;X&lt;/font&gt;" style="whiteSpace=wrap;html=1;strokeWidth=1;fontSize=10;" parent="WlDwBt7fqW8rS3JiSvJs-1" vertex="1">
                    &#xa;
                    <mxGeometry x="1275" y="340" width="50" height="40" as="geometry"/>
                    &#xa;
                </mxCell>
                &#xa;
                <mxCell id="mZP5UH-jQ9MI4EK8pSfL-4" value="&lt;font style=&quot;font-size: 22px&quot;&gt;X&lt;/font&gt;" style="whiteSpace=wrap;html=1;strokeWidth=1;fontSize=10;" parent="WlDwBt7fqW8rS3JiSvJs-1" vertex="1">
                    &#xa;
                    <mxGeometry x="1585" y="340" width="50" height="40" as="geometry"/>
                    &#xa;
                </mxCell>
                &#xa;
                <mxCell id="mZP5UH-jQ9MI4EK8pSfL-5" value="&lt;font style=&quot;font-size: 22px&quot;&gt;X&lt;/font&gt;" style="whiteSpace=wrap;html=1;strokeWidth=1;fontSize=10;" parent="WlDwBt7fqW8rS3JiSvJs-1" vertex="1">
                    &#xa;
                    <mxGeometry x="620" y="590" width="50" height="40" as="geometry"/>
                    &#xa;
                </mxCell>
                &#xa;
                <mxCell id="mZP5UH-jQ9MI4EK8pSfL-6" value="&lt;font style=&quot;font-size: 22px&quot;&gt;X&lt;/font&gt;" style="whiteSpace=wrap;html=1;strokeWidth=1;fontSize=10;" parent="WlDwBt7fqW8rS3JiSvJs-1" vertex="1">
                    &#xa;
                    <mxGeometry x="955" y="590" width="50" height="40" as="geometry"/>
                    &#xa;
                </mxCell>
                &#xa;
                <mxCell id="mZP5UH-jQ9MI4EK8pSfL-7" value="&lt;font style=&quot;font-size: 22px&quot;&gt;X&lt;/font&gt;" style="whiteSpace=wrap;html=1;strokeWidth=1;fontSize=10;" parent="WlDwBt7fqW8rS3JiSvJs-1" vertex="1">
                    &#xa;
                    <mxGeometry x="1285" y="590" width="50" height="40" as="geometry"/>
                    &#xa;
                </mxCell>
                &#xa;
                <mxCell id="mZP5UH-jQ9MI4EK8pSfL-8" value="&lt;font style=&quot;font-size: 22px&quot;&gt;X&lt;/font&gt;" style="whiteSpace=wrap;html=1;strokeWidth=1;fontSize=10;" parent="WlDwBt7fqW8rS3JiSvJs-1" vertex="1">
                    &#xa;
                    <mxGeometry x="1585" y="580" width="50" height="40" as="geometry"/>
                    &#xa;
                </mxCell>
                &#xa;
                <mxCell id="mZP5UH-jQ9MI4EK8pSfL-9" value="&lt;font style=&quot;font-size: 22px&quot;&gt;X&lt;/font&gt;" style="whiteSpace=wrap;html=1;strokeWidth=1;fontSize=10;" parent="WlDwBt7fqW8rS3JiSvJs-1" vertex="1">
                    &#xa;
                    <mxGeometry x="615" y="880" width="50" height="40" as="geometry"/>
                    &#xa;
                </mxCell>
                &#xa;
                <mxCell id="mZP5UH-jQ9MI4EK8pSfL-10" value="&lt;font style=&quot;font-size: 22px&quot;&gt;X&lt;/font&gt;" style="whiteSpace=wrap;html=1;strokeWidth=1;fontSize=10;" parent="WlDwBt7fqW8rS3JiSvJs-1" vertex="1">
                    &#xa;
                    <mxGeometry x="955" y="880" width="50" height="40" as="geometry"/>
                    &#xa;
                </mxCell>
                &#xa;
                <mxCell id="mZP5UH-jQ9MI4EK8pSfL-11" value="&lt;font style=&quot;font-size: 22px&quot;&gt;X&lt;/font&gt;" style="whiteSpace=wrap;html=1;strokeWidth=1;fontSize=10;" parent="WlDwBt7fqW8rS3JiSvJs-1" vertex="1">
                    &#xa;
                    <mxGeometry x="1305" y="870" width="50" height="40" as="geometry"/>
                    &#xa;
                </mxCell>
                &#xa;
                <mxCell id="mZP5UH-jQ9MI4EK8pSfL-12" value="&lt;font style=&quot;font-size: 22px&quot;&gt;X&lt;/font&gt;" style="whiteSpace=wrap;html=1;strokeWidth=1;fontSize=10;" parent="WlDwBt7fqW8rS3JiSvJs-1" vertex="1">
                    &#xa;
                    <mxGeometry x="1605" y="870" width="50" height="40" as="geometry"/>
                    &#xa;
                </mxCell>
                &#xa;
            </root>
            &#xa;
        </mxGraphModel>
        &#xa;
    </diagram>
    <diagram id="mBiHvHK1Yv7yu0_ZXSmz" name="Input Card Component">
<<<<<<< HEAD:layout.drawio
        <mxGraphModel dx="1148" dy="790" grid="1" gridSize="10" guides="1" tooltips="1" connect="1" arrows="1" fold="1" page="1" pageScale="1" pageWidth="850" pageHeight="1100" math="0" shadow="0">
=======
        &#xa;
        <mxGraphModel dx="831" dy="443" grid="1" gridSize="10" guides="1" tooltips="1" connect="1" arrows="1" fold="1" page="1" pageScale="1" pageWidth="850" pageHeight="1100" math="0" shadow="0">
            &#xa;
>>>>>>> 89dd34d428ba6c7158a2d0597193d373603cdc22:assets/layout.drawio
            <root>
                &#xa;
                <mxCell id="vwPmqKTdcRmygD_mxQOE-0"/>
                &#xa;
                <mxCell id="vwPmqKTdcRmygD_mxQOE-1" parent="vwPmqKTdcRmygD_mxQOE-0"/>
                &#xa;
                <mxCell id="fX6gpefZWmk5lpF7Ck0V-0" value="" style="whiteSpace=wrap;html=1;fontSize=25;" parent="vwPmqKTdcRmygD_mxQOE-1" vertex="1">
                    &#xa;
                    <mxGeometry x="110" y="100" width="630" height="600" as="geometry"/>
                    &#xa;
                </mxCell>
                &#xa;
                <mxCell id="fX6gpefZWmk5lpF7Ck0V-1" value="Title" style="whiteSpace=wrap;html=1;fontSize=25;" parent="vwPmqKTdcRmygD_mxQOE-1" vertex="1">
                    &#xa;
                    <mxGeometry x="170" y="130" width="520" height="50" as="geometry"/>
                    &#xa;
                </mxCell>
                &#xa;
                <mxCell id="fX6gpefZWmk5lpF7Ck0V-2" value="Snipt It" style="whiteSpace=wrap;html=1;fontSize=25;" parent="vwPmqKTdcRmygD_mxQOE-1" vertex="1">
                    &#xa;
                    <mxGeometry x="170" y="220" width="520" height="240" as="geometry"/>
                    &#xa;
                </mxCell>
                &#xa;
                <mxCell id="fX6gpefZWmk5lpF7Ck0V-3" value="Category Drop Down" style="whiteSpace=wrap;html=1;fontSize=25;" parent="vwPmqKTdcRmygD_mxQOE-1" vertex="1">
                    &#xa;
                    <mxGeometry x="170" y="500" width="520" height="60" as="geometry"/>
                    &#xa;
                </mxCell>
<<<<<<< HEAD:layout.drawio
                <mxCell id="fX6gpefZWmk5lpF7Ck0V-5" value="&lt;font style=&quot;font-size: 15px&quot;&gt;Submit/Edit&lt;/font&gt;" style="whiteSpace=wrap;html=1;fontSize=25;" parent="vwPmqKTdcRmygD_mxQOE-1" vertex="1">
=======
                &#xa;
                <mxCell id="fX6gpefZWmk5lpF7Ck0V-5" value="Submit" style="whiteSpace=wrap;html=1;fontSize=25;" parent="vwPmqKTdcRmygD_mxQOE-1" vertex="1">
                    &#xa;
>>>>>>> 89dd34d428ba6c7158a2d0597193d373603cdc22:assets/layout.drawio
                    <mxGeometry x="170" y="610" width="120" height="60" as="geometry"/>
                    &#xa;
                </mxCell>
                &#xa;
                <mxCell id="fX6gpefZWmk5lpF7Ck0V-6" value="Cancel" style="whiteSpace=wrap;html=1;fontSize=25;" parent="vwPmqKTdcRmygD_mxQOE-1" vertex="1">
                    &#xa;
                    <mxGeometry x="320" y="610" width="120" height="60" as="geometry"/>
                    &#xa;
                </mxCell>
                &#xa;
            </root>
            &#xa;
        </mxGraphModel>
        &#xa;
    </diagram>
    <diagram id="kM4ZVro7vqHfRSNEJo96" name="Snip It Component">
<<<<<<< HEAD:layout.drawio
        <mxGraphModel dx="1148" dy="790" grid="1" gridSize="10" guides="1" tooltips="1" connect="1" arrows="1" fold="1" page="1" pageScale="1" pageWidth="850" pageHeight="1100" math="0" shadow="0">
=======
        &#xa;
        <mxGraphModel dx="831" dy="443" grid="1" gridSize="10" guides="1" tooltips="1" connect="1" arrows="1" fold="1" page="1" pageScale="1" pageWidth="850" pageHeight="1100" math="0" shadow="0">
            &#xa;
>>>>>>> 89dd34d428ba6c7158a2d0597193d373603cdc22:assets/layout.drawio
            <root>
                &#xa;
                <mxCell id="YlaSCArcVVODbL-2ldp6-0"/>
                &#xa;
                <mxCell id="YlaSCArcVVODbL-2ldp6-1" parent="YlaSCArcVVODbL-2ldp6-0"/>
                &#xa;
                <mxCell id="XtPzE84KAWHGtHSspQYe-0" value="" style="whiteSpace=wrap;html=1;fontSize=25;" parent="YlaSCArcVVODbL-2ldp6-1" vertex="1">
                    &#xa;
                    <mxGeometry x="110" y="100" width="630" height="600" as="geometry"/>
                    &#xa;
                </mxCell>
                &#xa;
                <mxCell id="XtPzE84KAWHGtHSspQYe-1" value="Title" style="whiteSpace=wrap;html=1;fontSize=25;" parent="YlaSCArcVVODbL-2ldp6-1" vertex="1">
                    &#xa;
                    <mxGeometry x="170" y="130" width="520" height="50" as="geometry"/>
                    &#xa;
                </mxCell>
                &#xa;
                <mxCell id="XtPzE84KAWHGtHSspQYe-2" value="Snipt It" style="whiteSpace=wrap;html=1;fontSize=25;" parent="YlaSCArcVVODbL-2ldp6-1" vertex="1">
                    &#xa;
                    <mxGeometry x="165" y="200" width="525" height="450" as="geometry"/>
                    &#xa;
                </mxCell>
                &#xa;
                <mxCell id="9NgNh8PG0PWu56jsaDqd-0" value="&lt;font style=&quot;font-size: 20px&quot;&gt;Category&lt;/font&gt;" style="text;html=1;resizable=0;autosize=1;align=center;verticalAlign=middle;points=[];fillColor=none;strokeColor=none;rounded=0;" parent="YlaSCArcVVODbL-2ldp6-1" vertex="1">
                    &#xa;
                    <mxGeometry x="135" y="670" width="100" height="20" as="geometry"/>
                    &#xa;
                </mxCell>
                &#xa;
                <mxCell id="9NgNh8PG0PWu56jsaDqd-1" value="Date" style="text;html=1;resizable=0;autosize=1;align=center;verticalAlign=middle;points=[];fillColor=none;strokeColor=none;rounded=0;strokeWidth=8;fontSize=19;" parent="YlaSCArcVVODbL-2ldp6-1" vertex="1">
                    &#xa;
                    <mxGeometry x="635" y="665" width="60" height="30" as="geometry"/>
                    &#xa;
                </mxCell>
                &#xa;
            </root>
            &#xa;
        </mxGraphModel>
        &#xa;
    </diagram>
    <diagram id="_CI7XzxA5EbNb2dtriSv" name="DB Layout">
        <mxGraphModel dx="831" dy="443" grid="1" gridSize="10" guides="1" tooltips="1" connect="1" arrows="1" fold="1" page="1" pageScale="1" pageWidth="850" pageHeight="1100" math="0" shadow="0">
            <root>
                <mxCell id="Ys9fk0qrmuMmo6rujN_h-0"/>
                <mxCell id="Ys9fk0qrmuMmo6rujN_h-1" parent="Ys9fk0qrmuMmo6rujN_h-0"/>
                <mxCell id="Ys9fk0qrmuMmo6rujN_h-2" value="" style="shape=table;html=1;whiteSpace=wrap;startSize=0;container=1;collapsible=0;childLayout=tableLayout;" parent="Ys9fk0qrmuMmo6rujN_h-1" vertex="1">
                    <mxGeometry x="80" y="80" width="60" height="160" as="geometry"/>
                </mxCell>
                <mxCell id="Ys9fk0qrmuMmo6rujN_h-3" value="" style="shape=partialRectangle;html=1;whiteSpace=wrap;collapsible=0;dropTarget=0;pointerEvents=0;fillColor=none;top=0;left=0;bottom=0;right=0;points=[[0,0.5],[1,0.5]];portConstraint=eastwest;" parent="Ys9fk0qrmuMmo6rujN_h-2" vertex="1">
                    <mxGeometry width="60" height="40" as="geometry"/>
                </mxCell>
                <mxCell id="Ys9fk0qrmuMmo6rujN_h-4" value="Username" style="shape=partialRectangle;html=1;whiteSpace=wrap;connectable=0;overflow=hidden;fillColor=none;top=0;left=0;bottom=0;right=0;" parent="Ys9fk0qrmuMmo6rujN_h-3" vertex="1">
                    <mxGeometry width="60" height="40" as="geometry"/>
                </mxCell>
                <mxCell id="Ys9fk0qrmuMmo6rujN_h-5" value="" style="shape=partialRectangle;html=1;whiteSpace=wrap;collapsible=0;dropTarget=0;pointerEvents=0;fillColor=none;top=0;left=0;bottom=0;right=0;points=[[0,0.5],[1,0.5]];portConstraint=eastwest;" parent="Ys9fk0qrmuMmo6rujN_h-2" vertex="1">
                    <mxGeometry y="40" width="60" height="40" as="geometry"/>
                </mxCell>
                <mxCell id="Ys9fk0qrmuMmo6rujN_h-6" value="Email" style="shape=partialRectangle;html=1;whiteSpace=wrap;connectable=0;overflow=hidden;fillColor=none;top=0;left=0;bottom=0;right=0;" parent="Ys9fk0qrmuMmo6rujN_h-5" vertex="1">
                    <mxGeometry width="60" height="40" as="geometry"/>
                </mxCell>
                <mxCell id="Ys9fk0qrmuMmo6rujN_h-7" value="" style="shape=partialRectangle;html=1;whiteSpace=wrap;collapsible=0;dropTarget=0;pointerEvents=0;fillColor=none;top=0;left=0;bottom=0;right=0;points=[[0,0.5],[1,0.5]];portConstraint=eastwest;" parent="Ys9fk0qrmuMmo6rujN_h-2" vertex="1">
                    <mxGeometry y="80" width="60" height="40" as="geometry"/>
                </mxCell>
                <mxCell id="Ys9fk0qrmuMmo6rujN_h-8" value="Password" style="shape=partialRectangle;html=1;whiteSpace=wrap;connectable=0;overflow=hidden;fillColor=none;top=0;left=0;bottom=0;right=0;" parent="Ys9fk0qrmuMmo6rujN_h-7" vertex="1">
                    <mxGeometry width="60" height="40" as="geometry"/>
                </mxCell>
                <mxCell id="Ys9fk0qrmuMmo6rujN_h-9" value="" style="shape=partialRectangle;html=1;whiteSpace=wrap;collapsible=0;dropTarget=0;pointerEvents=0;fillColor=none;top=0;left=0;bottom=0;right=0;points=[[0,0.5],[1,0.5]];portConstraint=eastwest;" parent="Ys9fk0qrmuMmo6rujN_h-2" vertex="1">
                    <mxGeometry y="120" width="60" height="40" as="geometry"/>
                </mxCell>
                <mxCell id="Ys9fk0qrmuMmo6rujN_h-10" value="Profile" style="shape=partialRectangle;html=1;whiteSpace=wrap;connectable=0;overflow=hidden;fillColor=none;top=0;left=0;bottom=0;right=0;" parent="Ys9fk0qrmuMmo6rujN_h-9" vertex="1">
                    <mxGeometry width="60" height="40" as="geometry"/>
                </mxCell>
                <mxCell id="lmvsAE0AkxsUw2c37gq6-0" style="edgeStyle=orthogonalEdgeStyle;rounded=0;orthogonalLoop=1;jettySize=auto;html=1;exitX=1;exitY=0.5;exitDx=0;exitDy=0;" parent="Ys9fk0qrmuMmo6rujN_h-1" source="Ys9fk0qrmuMmo6rujN_h-3" edge="1">
                    <mxGeometry relative="1" as="geometry">
                        <mxPoint x="230" y="270" as="targetPoint"/>
                        <Array as="points">
                            <mxPoint x="230" y="100"/>
                            <mxPoint x="230" y="280"/>
                        </Array>
                    </mxGeometry>
                </mxCell>
                <mxCell id="lmvsAE0AkxsUw2c37gq6-1" value="" style="shape=table;html=1;whiteSpace=wrap;startSize=0;container=1;collapsible=0;childLayout=tableLayout;" parent="Ys9fk0qrmuMmo6rujN_h-1" vertex="1">
                    <mxGeometry x="200" y="280" width="60" height="160" as="geometry"/>
                </mxCell>
                <mxCell id="lmvsAE0AkxsUw2c37gq6-2" value="" style="shape=partialRectangle;html=1;whiteSpace=wrap;collapsible=0;dropTarget=0;pointerEvents=0;fillColor=none;top=0;left=0;bottom=0;right=0;points=[[0,0.5],[1,0.5]];portConstraint=eastwest;" parent="lmvsAE0AkxsUw2c37gq6-1" vertex="1">
                    <mxGeometry width="60" height="40" as="geometry"/>
                </mxCell>
                <mxCell id="lmvsAE0AkxsUw2c37gq6-3" value="Title" style="shape=partialRectangle;html=1;whiteSpace=wrap;connectable=0;overflow=hidden;fillColor=none;top=0;left=0;bottom=0;right=0;" parent="lmvsAE0AkxsUw2c37gq6-2" vertex="1">
                    <mxGeometry width="60" height="40" as="geometry"/>
                </mxCell>
                <mxCell id="lmvsAE0AkxsUw2c37gq6-4" value="" style="shape=partialRectangle;html=1;whiteSpace=wrap;collapsible=0;dropTarget=0;pointerEvents=0;fillColor=none;top=0;left=0;bottom=0;right=0;points=[[0,0.5],[1,0.5]];portConstraint=eastwest;" parent="lmvsAE0AkxsUw2c37gq6-1" vertex="1">
                    <mxGeometry y="40" width="60" height="40" as="geometry"/>
                </mxCell>
                <mxCell id="lmvsAE0AkxsUw2c37gq6-5" value="Category" style="shape=partialRectangle;html=1;whiteSpace=wrap;connectable=0;overflow=hidden;fillColor=none;top=0;left=0;bottom=0;right=0;" parent="lmvsAE0AkxsUw2c37gq6-4" vertex="1">
                    <mxGeometry width="60" height="40" as="geometry"/>
                </mxCell>
                <mxCell id="lmvsAE0AkxsUw2c37gq6-6" value="" style="shape=partialRectangle;html=1;whiteSpace=wrap;collapsible=0;dropTarget=0;pointerEvents=0;fillColor=none;top=0;left=0;bottom=0;right=0;points=[[0,0.5],[1,0.5]];portConstraint=eastwest;" parent="lmvsAE0AkxsUw2c37gq6-1" vertex="1">
                    <mxGeometry y="80" width="60" height="40" as="geometry"/>
                </mxCell>
                <mxCell id="lmvsAE0AkxsUw2c37gq6-7" value="Content" style="shape=partialRectangle;html=1;whiteSpace=wrap;connectable=0;overflow=hidden;fillColor=none;top=0;left=0;bottom=0;right=0;" parent="lmvsAE0AkxsUw2c37gq6-6" vertex="1">
                    <mxGeometry width="60" height="40" as="geometry"/>
                </mxCell>
                <mxCell id="lmvsAE0AkxsUw2c37gq6-22" style="shape=partialRectangle;html=1;whiteSpace=wrap;collapsible=0;dropTarget=0;pointerEvents=0;fillColor=none;top=0;left=0;bottom=0;right=0;points=[[0,0.5],[1,0.5]];portConstraint=eastwest;" parent="lmvsAE0AkxsUw2c37gq6-1" vertex="1">
                    <mxGeometry y="120" width="60" height="40" as="geometry"/>
                </mxCell>
                <mxCell id="lmvsAE0AkxsUw2c37gq6-23" value="Date Created" style="shape=partialRectangle;html=1;whiteSpace=wrap;connectable=0;overflow=hidden;fillColor=none;top=0;left=0;bottom=0;right=0;" parent="lmvsAE0AkxsUw2c37gq6-22" vertex="1">
                    <mxGeometry width="60" height="40" as="geometry"/>
                </mxCell>
                <mxCell id="lmvsAE0AkxsUw2c37gq6-8" value="" style="shape=table;html=1;whiteSpace=wrap;startSize=0;container=1;collapsible=0;childLayout=tableLayout;" parent="Ys9fk0qrmuMmo6rujN_h-1" vertex="1">
                    <mxGeometry x="480" y="320" width="60" height="200" as="geometry"/>
                </mxCell>
                <mxCell id="lmvsAE0AkxsUw2c37gq6-9" value="" style="shape=partialRectangle;html=1;whiteSpace=wrap;collapsible=0;dropTarget=0;pointerEvents=0;fillColor=none;top=0;left=0;bottom=0;right=0;points=[[0,0.5],[1,0.5]];portConstraint=eastwest;" parent="lmvsAE0AkxsUw2c37gq6-8" vertex="1">
                    <mxGeometry width="60" height="40" as="geometry"/>
                </mxCell>
                <mxCell id="lmvsAE0AkxsUw2c37gq6-10" value="category1" style="shape=partialRectangle;html=1;whiteSpace=wrap;connectable=0;overflow=hidden;fillColor=none;top=0;left=0;bottom=0;right=0;" parent="lmvsAE0AkxsUw2c37gq6-9" vertex="1">
                    <mxGeometry width="60" height="40" as="geometry"/>
                </mxCell>
                <mxCell id="lmvsAE0AkxsUw2c37gq6-11" value="" style="shape=partialRectangle;html=1;whiteSpace=wrap;collapsible=0;dropTarget=0;pointerEvents=0;fillColor=none;top=0;left=0;bottom=0;right=0;points=[[0,0.5],[1,0.5]];portConstraint=eastwest;" parent="lmvsAE0AkxsUw2c37gq6-8" vertex="1">
                    <mxGeometry y="40" width="60" height="40" as="geometry"/>
                </mxCell>
                <mxCell id="lmvsAE0AkxsUw2c37gq6-12" value="category2" style="shape=partialRectangle;html=1;whiteSpace=wrap;connectable=0;overflow=hidden;fillColor=none;top=0;left=0;bottom=0;right=0;" parent="lmvsAE0AkxsUw2c37gq6-11" vertex="1">
                    <mxGeometry width="60" height="40" as="geometry"/>
                </mxCell>
                <mxCell id="lmvsAE0AkxsUw2c37gq6-13" value="" style="shape=partialRectangle;html=1;whiteSpace=wrap;collapsible=0;dropTarget=0;pointerEvents=0;fillColor=none;top=0;left=0;bottom=0;right=0;points=[[0,0.5],[1,0.5]];portConstraint=eastwest;" parent="lmvsAE0AkxsUw2c37gq6-8" vertex="1">
                    <mxGeometry y="80" width="60" height="40" as="geometry"/>
                </mxCell>
                <mxCell id="lmvsAE0AkxsUw2c37gq6-14" value="category3" style="shape=partialRectangle;html=1;whiteSpace=wrap;connectable=0;overflow=hidden;fillColor=none;top=0;left=0;bottom=0;right=0;" parent="lmvsAE0AkxsUw2c37gq6-13" vertex="1">
                    <mxGeometry width="60" height="40" as="geometry"/>
                </mxCell>
                <mxCell id="lmvsAE0AkxsUw2c37gq6-15" value="" style="shape=partialRectangle;html=1;whiteSpace=wrap;collapsible=0;dropTarget=0;pointerEvents=0;fillColor=none;top=0;left=0;bottom=0;right=0;points=[[0,0.5],[1,0.5]];portConstraint=eastwest;" parent="lmvsAE0AkxsUw2c37gq6-8" vertex="1">
                    <mxGeometry y="120" width="60" height="40" as="geometry"/>
                </mxCell>
                <mxCell id="lmvsAE0AkxsUw2c37gq6-16" value="category4" style="shape=partialRectangle;html=1;whiteSpace=wrap;connectable=0;overflow=hidden;fillColor=none;top=0;left=0;bottom=0;right=0;" parent="lmvsAE0AkxsUw2c37gq6-15" vertex="1">
                    <mxGeometry width="60" height="40" as="geometry"/>
                </mxCell>
                <mxCell id="lmvsAE0AkxsUw2c37gq6-17" value="" style="shape=partialRectangle;html=1;whiteSpace=wrap;collapsible=0;dropTarget=0;pointerEvents=0;fillColor=none;top=0;left=0;bottom=0;right=0;points=[[0,0.5],[1,0.5]];portConstraint=eastwest;" parent="lmvsAE0AkxsUw2c37gq6-8" vertex="1">
                    <mxGeometry y="160" width="60" height="40" as="geometry"/>
                </mxCell>
                <mxCell id="lmvsAE0AkxsUw2c37gq6-18" value="category5" style="shape=partialRectangle;html=1;whiteSpace=wrap;connectable=0;overflow=hidden;fillColor=none;top=0;left=0;bottom=0;right=0;" parent="lmvsAE0AkxsUw2c37gq6-17" vertex="1">
                    <mxGeometry width="60" height="40" as="geometry"/>
                </mxCell>
                <mxCell id="lmvsAE0AkxsUw2c37gq6-19" style="edgeStyle=orthogonalEdgeStyle;rounded=0;orthogonalLoop=1;jettySize=auto;html=1;exitX=1;exitY=0.5;exitDx=0;exitDy=0;entryX=0;entryY=0.5;entryDx=0;entryDy=0;" parent="Ys9fk0qrmuMmo6rujN_h-1" source="lmvsAE0AkxsUw2c37gq6-4" target="lmvsAE0AkxsUw2c37gq6-9" edge="1">
                    <mxGeometry relative="1" as="geometry"/>
                </mxCell>
            </root>
        </mxGraphModel>
    </diagram>
    <diagram id="ickv7F-CFCT0vTgCGqgz" name="Page-7">
        <mxGraphModel dx="1148" dy="790" grid="1" gridSize="10" guides="1" tooltips="1" connect="1" arrows="1" fold="1" page="1" pageScale="1" pageWidth="850" pageHeight="1100" math="0" shadow="0">
            <root>
                <mxCell id="xS0d6QG8XbmRzfh_bIZ_-0"/>
                <mxCell id="xS0d6QG8XbmRzfh_bIZ_-1" parent="xS0d6QG8XbmRzfh_bIZ_-0"/>
            </root>
        </mxGraphModel>
    </diagram>
</mxfile>